<?xml version="1.0" encoding="UTF-8" standalone="no"?>
<svg
   xmlns:dc="http://purl.org/dc/elements/1.1/"
   xmlns:cc="http://creativecommons.org/ns#"
   xmlns:rdf="http://www.w3.org/1999/02/22-rdf-syntax-ns#"
   xmlns:svg="http://www.w3.org/2000/svg"
   xmlns="http://www.w3.org/2000/svg"
   viewBox="0 0 996 327.556"
   height="327.556"
   width="996"
   xml:space="preserve"
   id="svg2"
   version="1.1"><metadata
     id="metadata8"><rdf:RDF><cc:Work
         rdf:about=""><dc:format>image/svg+xml</dc:format><dc:type
           rdf:resource="http://purl.org/dc/dcmitype/StillImage" /></cc:Work></rdf:RDF></metadata><defs
     id="defs6"><clipPath
       id="clipPath84"
       clipPathUnits="userSpaceOnUse"><path
         id="path82"
         d="M 0,245.667 H 747 V 0 H 0 Z" /></clipPath></defs><g
     transform="matrix(1.3333333,0,0,-1.3333333,0,327.556)"
     id="g10"><path
       id="path12"
       style="fill:#000000;fill-opacity:1;fill-rule:nonzero;stroke:none"
       d="m 173.394,49.512 h 4.959 v 146.565 h -4.959 z" /><path
       id="path14"
       style="fill:#000000;fill-opacity:1;fill-rule:nonzero;stroke:none"
       d="m 193.23,49.512 h 4.959 v 146.565 h -4.959 z" /><path
       id="path16"
       style="fill:#000000;fill-opacity:1;fill-rule:nonzero;stroke:none"
       d="m 183.312,49.512 h 4.959 v 146.565 h -4.959 z" /><path
       id="path18"
       style="fill:#000000;fill-opacity:1;fill-rule:nonzero;stroke:none"
       d="m 205.187,49.512 h 65.679 v 4.959 h -65.679 z" /><path
       id="path20"
       style="fill:#000000;fill-opacity:1;fill-rule:nonzero;stroke:none"
       d="m 205.187,69.348 h 65.679 v 4.959 h -65.679 z" /><path
       id="path22"
       style="fill:#000000;fill-opacity:1;fill-rule:nonzero;stroke:none"
       d="m 205.187,59.43 h 65.679 v 4.959 h -65.679 z" /><path
       id="path24"
       style="fill:#000000;fill-opacity:1;fill-rule:nonzero;stroke:none"
       d="m 205.187,112.877 h 61.877 v 4.959 h -61.877 z" /><path
       id="path26"
       style="fill:#000000;fill-opacity:1;fill-rule:nonzero;stroke:none"
       d="m 205.187,132.712 h 61.877 v 4.959 h -61.877 z" /><path
       id="path28"
       style="fill:#000000;fill-opacity:1;fill-rule:nonzero;stroke:none"
       d="m 205.187,122.794 h 61.877 v 4.959 h -61.877 z" /><path
       id="path30"
       style="fill:#000000;fill-opacity:1;fill-rule:nonzero;stroke:none"
       d="m 205.187,171.283 h 65.679 v 4.959 h -65.679 z" /><path
       id="path32"
       style="fill:#000000;fill-opacity:1;fill-rule:nonzero;stroke:none"
       d="m 205.187,191.119 h 65.679 v 4.959 h -65.679 z" /><path
       id="path34"
       style="fill:#000000;fill-opacity:1;fill-rule:nonzero;stroke:none"
       d="m 205.187,181.201 h 65.679 v 4.959 h -65.679 z" /><path
       id="path36"
       style="fill:#000000;fill-opacity:1;fill-rule:nonzero;stroke:none"
       d="m 49.59,49.512 h 4.959 V 196.077 H 49.59 Z" /><path
       id="path38"
       style="fill:#000000;fill-opacity:1;fill-rule:nonzero;stroke:none"
       d="m 69.426,49.512 h 4.959 v 146.565 h -4.959 z" /><path
       id="path40"
       style="fill:#000000;fill-opacity:1;fill-rule:nonzero;stroke:none"
       d="m 59.508,49.512 h 4.959 v 146.565 h -4.959 z" /><g
       transform="translate(98.7793,128.4956)"
       id="g42"><path
         id="path44"
         style="fill:#000000;fill-opacity:1;fill-rule:nonzero;stroke:none"
         d="m 0,0 55.008,55.008 -3.507,3.507 -58.512,-58.513 3.169,-3.168 -0.003,-0.002 61.712,-61.712 3.507,3.505 z M -10.517,3.509 47.995,62.021 44.488,65.528 -14.024,7.015 Z m -7.013,7.013 58.512,58.512 -3.507,3.507 -58.512,-58.513 z m 3.529,-24.574 -3.506,-3.506 61.348,-61.348 3.507,3.506 z m 3.507,3.507 61.348,-61.348 3.507,3.506 -61.348,61.347 z" /></g><g
       transform="translate(315.4419,177.1045)"
       id="g46"><path
         id="path48"
         style="fill:#000000;fill-opacity:1;fill-rule:nonzero;stroke:none"
         d="m 0,0 65.112,-110.318 4.271,2.521 L 4.271,2.521 Z" /></g><path
       id="path50"
       style="fill:#000000;fill-opacity:1;fill-rule:nonzero;stroke:none"
       d="m 286.106,49.512 h 4.959 v 146.565 h -4.959 z" /><path
       id="path52"
       style="fill:#000000;fill-opacity:1;fill-rule:nonzero;stroke:none"
       d="m 305.942,49.512 h 4.959 v 146.565 h -4.959 z" /><path
       id="path54"
       style="fill:#000000;fill-opacity:1;fill-rule:nonzero;stroke:none"
       d="m 296.024,49.512 h 4.959 v 146.565 h -4.959 z" /><path
       id="path56"
       style="fill:#000000;fill-opacity:1;fill-rule:nonzero;stroke:none"
       d="m 389.583,49.512 h 4.959 v 146.565 h -4.959 z" /><path
       id="path58"
       style="fill:#000000;fill-opacity:1;fill-rule:nonzero;stroke:none"
       d="m 409.419,49.512 h 4.959 v 146.565 h -4.959 z" /><path
       id="path60"
       style="fill:#000000;fill-opacity:1;fill-rule:nonzero;stroke:none"
       d="m 399.501,49.512 h 4.959 v 146.565 h -4.959 z" /><path
       id="path62"
       style="fill:#000000;fill-opacity:1;fill-rule:nonzero;stroke:none"
       d="M 428.241,49.512 H 544.97 v 4.959 H 428.241 Z" /><path
       id="path64"
       style="fill:#000000;fill-opacity:1;fill-rule:nonzero;stroke:none"
       d="M 428.241,69.348 H 544.97 v 4.959 H 428.241 Z" /><path
       id="path66"
       style="fill:#000000;fill-opacity:1;fill-rule:nonzero;stroke:none"
       d="M 428.241,59.43 H 544.97 v 4.959 H 428.241 Z" /><g
       transform="translate(527.2021,149.1191)"
       id="g68"><path
         id="path70"
         style="fill:#000000;fill-opacity:1;fill-rule:nonzero;stroke:none"
         d="m 0,0 -3.507,3.507 -70.224,-70.225 3.505,-3.507 z m -77.238,-63.212 70.224,70.225 -3.507,3.507 -70.223,-70.225 z m -7.013,7.013 70.225,70.225 -3.507,3.507 -70.224,-70.225 z" /></g><path
       id="path72"
       style="fill:#000000;fill-opacity:1;fill-rule:nonzero;stroke:none"
       d="M 428.241,171.283 H 544.97 v 4.959 H 428.241 Z" /><path
       id="path74"
       style="fill:#000000;fill-opacity:1;fill-rule:nonzero;stroke:none"
       d="M 428.241,191.119 H 544.97 v 4.959 H 428.241 Z" /><path
       id="path76"
       style="fill:#000000;fill-opacity:1;fill-rule:nonzero;stroke:none"
       d="M 428.241,181.201 H 544.97 v 4.959 H 428.241 Z" /><g
       id="g78"><g
         clip-path="url(#clipPath84)"
         id="g80"><g
           transform="translate(702.2246,122.7944)"
           id="g86"><path
             id="path88"
             style="fill:#000000;fill-opacity:1;fill-rule:nonzero;stroke:none"
             d="m 0,0 c 0,43.212 -35.03,78.242 -78.242,78.242 -43.211,0 -78.241,-35.03 -78.241,-78.242 0,-43.212 35.03,-78.242 78.241,-78.242 C -35.03,-78.242 0,-43.212 0,0 m -4.814,0 c 0,-40.552 -32.874,-73.426 -73.428,-73.426 -40.552,0 -73.426,32.874 -73.426,73.426 0,40.552 32.874,73.426 73.426,73.426 40.554,0 73.428,-32.874 73.428,-73.426" /></g><g
           transform="translate(692.1377,122.7944)"
           id="g90"><path
             id="path92"
             style="fill:#000000;fill-opacity:1;fill-rule:nonzero;stroke:none"
             d="m 0,0 c 0,37.641 -30.514,68.155 -68.154,68.155 -37.642,0 -68.156,-30.514 -68.156,-68.155 0,-37.641 30.514,-68.155 68.156,-68.155 C -30.514,-68.155 0,-37.641 0,0 m -5.126,0 c 0,-34.81 -28.219,-63.029 -63.028,-63.029 -34.811,0 -63.03,28.219 -63.03,63.029 0,34.81 28.219,63.029 63.03,63.029 34.809,0 63.028,-28.219 63.028,-63.029" /></g><g
           transform="translate(681.8906,122.7944)"
           id="g94"><path
             id="path96"
             style="fill:#000000;fill-opacity:1;fill-rule:nonzero;stroke:none"
             d="m 0,0 c 0,31.982 -25.926,57.908 -57.908,57.908 -31.981,0 -57.907,-25.926 -57.907,-57.908 0,-31.981 25.926,-57.907 57.907,-57.907 C -25.926,-57.907 0,-31.981 0,0 m -5.135,0 c 0,-29.146 -23.627,-52.773 -52.773,-52.773 -29.145,0 -52.773,23.627 -52.773,52.773 0,29.146 23.628,52.773 52.773,52.773 29.146,0 52.773,-23.627 52.773,-52.773" /></g><g
           transform="translate(590.6152,130.3457)"
           id="g98"><path
             id="path100"
             style="fill:#000000;fill-opacity:1;fill-rule:nonzero;stroke:none"
             d="M 0,0 1.204,-0.323 C 4.392,-1.177 7.455,-0.54 8.404,3.005 9.229,6.082 8.103,8.296 2.929,9.682 L 0.521,10.327 -3.983,-6.484 -1.888,-7.046 Z M 2.115,7.893 2.672,7.743 C 4.746,7.188 7.159,6.207 6.454,3.576 5.737,0.9 3.312,1.12 1.171,1.694 L 0.502,1.873 Z M 20.7,-8.581 21.488,-13.31 23.74,-13.912 20.409,5.763 7.687,-9.611 l 2.252,-0.603 3.046,3.7 z m -0.356,2.15 -5.976,1.601 4.81,6 z M 36.452,-9.48 c 2.508,-0.362 4.651,1.215 5.296,3.623 0.43,1.605 0.051,3.403 -1.132,4.604 -1.135,1.117 -2.734,1.569 -4.228,1.97 l -2.542,0.681 -4.504,-16.811 2.096,-0.562 1.905,7.112 0.87,-0.233 3.044,-8.438 2.542,-0.681 z m -1.012,8.443 0.558,-0.149 c 2.073,-0.556 4.469,-1.604 3.764,-4.235 -0.717,-2.675 -3.143,-2.455 -5.283,-1.882 l -0.669,0.179 z m 17.67,-2.727 -2.096,0.562 -4.504,-16.812 2.095,-0.561 z m 16.595,-6.788 c -0.477,1.872 -1.772,3.198 -3.644,3.7 -2.541,0.681 -5.386,-0.301 -6.115,-3.021 -0.627,-2.341 0.819,-3.9 2.515,-5.238 l 1.028,-0.802 c 1.288,-0.99 2.528,-2.159 2.044,-3.965 -0.471,-1.761 -2.171,-2.932 -3.977,-2.447 -1.806,0.484 -2.919,2.216 -2.401,4.061 l -2.237,0.12 c -0.367,-2.793 1.214,-5.366 3.935,-6.095 3.009,-0.806 5.959,0.745 6.776,3.8 0.753,2.809 -0.678,4.603 -2.813,6.178 l -1.079,0.791 c -0.94,0.682 -2.048,1.72 -1.695,3.034 0.395,1.473 2.11,1.993 3.448,1.634 1.271,-0.341 1.93,-1.092 2.274,-2.306 z" /></g></g></g></g></svg>
